# Blender 4.1.1
# www.blender.org
mtllib maze_floor.mtl
o Cube.006
v 0.035633 -0.405252 -0.741325
v 0.035633 -0.005252 -0.741325
v 0.035633 -0.405252 -10.741325
v 0.035633 -0.005252 -10.741325
v 10.035633 -0.405252 -0.741325
v 10.035633 -0.005252 -0.741325
v 10.035633 -0.405252 -10.741325
v 10.035633 -0.005252 -10.741325
vn -0.0399 -0.9984 0.0399
vn -0.0399 0.9984 0.0399
vn -0.0399 -0.9984 -0.0399
vn -0.0399 0.9984 -0.0399
vn 0.0399 -0.9984 0.0399
vn 0.0399 0.9984 0.0399
vn 0.0399 -0.9984 -0.0399
vn 0.0399 0.9984 -0.0399
vt 0.375000 0.000000
vt 0.625000 0.000000
vt 0.625000 0.250000
vt 0.375000 0.250000
vt 0.625000 0.500000
vt 0.375000 0.500000
vt 0.625000 0.750000
vt 0.375000 0.750000
vt 0.625000 1.000000
vt 0.375000 1.000000
vt 0.125000 0.500000
vt 0.125000 0.750000
vt 0.875000 0.500000
vt 0.875000 0.750000
s 1
f 1/1/1 2/2/2 4/3/4 3/4/3
f 3/4/3 4/3/4 8/5/8 7/6/7
f 7/6/7 8/5/8 6/7/6 5/8/5
f 5/8/5 6/7/6 2/9/2 1/10/1
f 3/11/3 7/6/7 5/8/5 1/12/1
f 8/5/8 4/13/4 2/14/2 6/7/6
