# 3ds Max Wavefront OBJ Exporter v0.99 - (c)2007 guruware
# File Created: 31.05.2024 00:28:25

mtllib pacman2.mtl

#
# object Cylinder001
#

v  2.7932 2.2775 4.9254
v  2.7932 2.1794 4.9954
v  2.7932 2.1372 5.0206
v  2.7932 2.3694 4.8475
v  1.0437 2.2775 4.9254
v  1.0437 2.1794 4.9954
v  1.0437 2.3694 4.8475
v  2.7932 2.4546 4.7623
v  1.0437 2.4546 4.7623
v  2.7932 2.5325 4.6703
v  1.0437 2.5325 4.6703
v  2.7932 2.6025 4.5723
v  1.0437 2.6025 4.5723
v  2.7932 2.6642 4.4688
v  1.0437 2.6642 4.4688
v  2.7932 2.7171 4.3605
v  1.0437 2.7171 4.3605
v  2.7932 2.7609 4.2483
v  1.0437 2.7609 4.2483
v  2.7932 2.7953 4.1328
v  1.0437 2.7953 4.1328
v  2.7932 2.8200 4.0149
v  1.0437 2.8200 4.0149
v  2.7932 2.8349 3.8953
v  1.0437 2.8349 3.8953
v  2.7932 2.8399 3.7749
v  1.0437 2.8399 3.7749
v  2.7932 2.8349 3.6545
v  1.0437 2.8349 3.6545
v  2.7932 2.8200 3.5349
v  1.0437 2.8200 3.5349
v  2.7932 2.7953 3.4170
v  1.0437 2.7953 3.4170
v  2.7932 2.7609 3.3015
v  1.0437 2.7609 3.3015
v  2.7932 2.7171 3.1893
v  1.0437 2.7171 3.1893
v  2.7932 2.6642 3.0810
v  1.0437 2.6642 3.0810
v  2.7932 2.6025 2.9775
v  1.0437 2.6025 2.9775
v  2.7932 2.5325 2.8795
v  1.0437 2.5325 2.8795
v  2.7932 2.4546 2.7875
v  1.0437 2.4546 2.7875
v  2.7932 2.3694 2.7023
v  1.0437 2.3694 2.7023
v  2.7932 2.2775 2.6244
v  1.0437 2.2775 2.6244
v  2.7932 2.1794 2.5544
v  1.0437 2.1794 2.5544
v  2.7932 2.0759 2.4927
v  1.0437 2.0759 2.4927
v  2.7932 1.9676 2.4398
v  1.0437 1.9676 2.4398
v  2.7932 1.8554 2.3960
v  1.0437 1.8554 2.3960
v  2.7932 1.7399 2.3616
v  1.0437 1.7399 2.3616
v  2.7932 1.6220 2.3369
v  1.0437 1.6220 2.3369
v  2.7932 1.5024 2.3220
v  1.0437 1.5024 2.3220
v  2.7932 1.3820 2.3170
v  1.0437 1.3820 2.3170
v  2.7932 1.2616 2.3220
v  1.0437 1.2616 2.3220
v  2.7932 1.1421 2.3369
v  1.0437 1.1421 2.3369
v  2.7932 1.0241 2.3616
v  1.0437 1.0241 2.3616
v  2.7932 0.9087 2.3960
v  1.0437 0.9087 2.3960
v  2.7932 0.7964 2.4398
v  1.0437 0.7964 2.4398
v  2.7932 0.6882 2.4927
v  1.0437 0.6882 2.4927
v  2.7932 0.5847 2.5544
v  1.0437 0.5847 2.5544
v  2.7932 0.4866 2.6244
v  1.0437 0.4866 2.6244
v  2.7932 0.3946 2.7023
v  1.0437 0.3946 2.7023
v  2.7932 0.3094 2.7875
v  1.0437 0.3094 2.7875
v  2.7932 0.2316 2.8795
v  1.0437 0.2316 2.8795
v  2.7932 0.1616 2.9775
v  1.0437 0.1616 2.9775
v  2.7932 0.0999 3.0810
v  1.0437 0.0999 3.0810
v  2.7932 0.0469 3.1893
v  1.0437 0.0469 3.1893
v  2.7932 0.0032 3.3015
v  1.0437 0.0032 3.3015
v  2.7932 -0.0312 3.4170
v  1.0437 -0.0312 3.4170
v  2.7932 -0.0560 3.5349
v  1.0437 -0.0560 3.5349
v  2.7932 -0.0709 3.6545
v  1.0437 -0.0709 3.6545
v  2.7932 -0.0758 3.7749
v  1.0437 -0.0758 3.7749
v  2.7932 -0.0709 3.8953
v  1.0437 -0.0709 3.8953
v  2.7932 -0.0560 4.0149
v  1.0437 -0.0560 4.0149
v  2.7932 -0.0312 4.1328
v  1.0437 -0.0312 4.1328
v  2.7932 0.0032 4.2483
v  1.0437 0.0032 4.2483
v  2.7932 0.0469 4.3605
v  1.0437 0.0469 4.3605
v  2.7932 0.0999 4.4688
v  1.0437 0.0999 4.4688
v  2.7932 0.1616 4.5723
v  1.0437 0.1616 4.5723
v  2.7932 0.2316 4.6704
v  1.0437 0.2316 4.6704
v  2.7932 0.3094 4.7623
v  1.0437 0.3094 4.7623
v  2.7932 0.3946 4.8475
v  1.0437 0.3946 4.8475
v  2.7932 0.4866 4.9254
v  1.0437 0.4866 4.9254
v  2.7932 0.5847 4.9954
v  1.0437 0.5847 4.9954
v  2.7932 0.6882 5.0571
v  1.0437 0.6882 5.0571
v  1.0437 2.1372 5.0206
v  1.0437 0.7669 5.0956
v  2.7932 0.7669 5.0956
v  1.0437 1.3530 3.7978
v  2.7932 1.3530 3.7978
# 134 vertices

vn 0.6979 0.4399 0.5652
vn 0.6979 0.3917 0.5996
vn 0.5791 -0.1871 0.7935
vn 0.6980 0.4850 0.5269
vn -0.6979 0.4399 0.5652
vn -0.6979 0.3917 0.5996
vn -0.6980 0.4850 0.5269
vn 0.6980 0.5269 0.4850
vn -0.6980 0.5269 0.4850
vn 0.6979 0.5652 0.4399
vn -0.6979 0.5652 0.4399
vn 0.6979 0.5996 0.3917
vn -0.6979 0.5996 0.3917
vn 0.6980 0.6298 0.3408
vn -0.6980 0.6298 0.3408
vn 0.6980 0.6558 0.2877
vn -0.6980 0.6558 0.2877
vn 0.6979 0.6774 0.2325
vn -0.6979 0.6774 0.2325
vn 0.6979 0.6943 0.1758
vn -0.6979 0.6943 0.1758
vn 0.6979 0.7064 0.1179
vn -0.6979 0.7064 0.1179
vn 0.6980 0.7137 0.0591
vn -0.6980 0.7137 0.0591
vn 0.6980 0.7161 0.0000
vn -0.6980 0.7161 -0.0000
vn 0.6980 0.7137 -0.0591
vn -0.6980 0.7137 -0.0591
vn 0.6980 0.7064 -0.1179
vn -0.6980 0.7064 -0.1179
vn 0.6979 0.6943 -0.1758
vn -0.6979 0.6943 -0.1758
vn 0.6979 0.6774 -0.2325
vn -0.6979 0.6774 -0.2325
vn 0.6980 0.6558 -0.2877
vn -0.6980 0.6558 -0.2877
vn 0.6980 0.6298 -0.3408
vn -0.6980 0.6298 -0.3408
vn 0.6979 0.5996 -0.3917
vn -0.6979 0.5996 -0.3917
vn 0.6979 0.5652 -0.4399
vn -0.6979 0.5652 -0.4399
vn 0.6979 0.5269 -0.4851
vn -0.6979 0.5269 -0.4851
vn 0.6979 0.4851 -0.5269
vn -0.6979 0.4851 -0.5269
vn 0.6980 0.4399 -0.5651
vn -0.6980 0.4399 -0.5651
vn 0.6980 0.3917 -0.5995
vn -0.6980 0.3917 -0.5995
vn 0.6979 0.3409 -0.6299
vn -0.6979 0.3409 -0.6299
vn 0.6979 0.2877 -0.6559
vn -0.6979 0.2877 -0.6559
vn 0.6980 0.2325 -0.6773
vn -0.6980 0.2325 -0.6773
vn 0.6980 0.1758 -0.6942
vn -0.6980 0.1758 -0.6942
vn 0.6980 0.1179 -0.7064
vn -0.6980 0.1179 -0.7064
vn 0.6980 0.0591 -0.7137
vn -0.6980 0.0591 -0.7137
vn 0.6980 -0.0000 -0.7161
vn -0.6980 -0.0000 -0.7161
vn 0.6980 -0.0591 -0.7137
vn -0.6980 -0.0591 -0.7137
vn 0.6980 -0.1179 -0.7064
vn -0.6980 -0.1179 -0.7064
vn 0.6979 -0.1758 -0.6943
vn -0.6979 -0.1758 -0.6943
vn 0.6980 -0.2325 -0.6773
vn -0.6980 -0.2325 -0.6773
vn 0.6980 -0.2877 -0.6558
vn -0.6980 -0.2877 -0.6558
vn 0.6979 -0.3409 -0.6299
vn -0.6979 -0.3409 -0.6299
vn 0.6979 -0.3917 -0.5996
vn -0.6979 -0.3917 -0.5996
vn 0.6979 -0.4399 -0.5652
vn -0.6979 -0.4399 -0.5652
vn 0.6979 -0.4851 -0.5269
vn -0.6979 -0.4851 -0.5269
vn 0.6979 -0.5269 -0.4850
vn -0.6979 -0.5269 -0.4850
vn 0.6980 -0.5651 -0.4399
vn -0.6980 -0.5651 -0.4399
vn 0.6980 -0.5995 -0.3917
vn -0.6980 -0.5995 -0.3917
vn 0.6980 -0.6298 -0.3408
vn -0.6980 -0.6298 -0.3408
vn 0.6980 -0.6558 -0.2877
vn -0.6980 -0.6558 -0.2877
vn 0.6979 -0.6774 -0.2325
vn -0.6979 -0.6774 -0.2325
vn 0.6980 -0.6942 -0.1758
vn -0.6980 -0.6942 -0.1758
vn 0.6980 -0.7063 -0.1179
vn -0.6980 -0.7063 -0.1179
vn 0.6980 -0.7137 -0.0591
vn -0.6980 -0.7137 -0.0591
vn 0.6979 -0.7162 0.0000
vn -0.6979 -0.7162 0.0000
vn 0.6979 -0.7137 0.0591
vn -0.6979 -0.7137 0.0591
vn 0.6979 -0.7064 0.1179
vn -0.6979 -0.7064 0.1179
vn 0.6979 -0.6943 0.1758
vn -0.6979 -0.6943 0.1758
vn 0.6979 -0.6774 0.2325
vn -0.6979 -0.6774 0.2325
vn 0.6979 -0.6559 0.2877
vn -0.6979 -0.6559 0.2877
vn 0.6979 -0.6299 0.3409
vn -0.6979 -0.6299 0.3409
vn 0.6979 -0.5996 0.3917
vn -0.6979 -0.5996 0.3917
vn 0.6979 -0.5652 0.4399
vn -0.6979 -0.5652 0.4399
vn 0.6979 -0.5269 0.4851
vn -0.6979 -0.5269 0.4851
vn 0.6979 -0.4850 0.5269
vn -0.6979 -0.4850 0.5269
vn 0.6979 -0.4399 0.5652
vn -0.6979 -0.4399 0.5652
vn 0.6979 -0.3917 0.5996
vn -0.6979 -0.3917 0.5996
vn 0.6979 -0.3409 0.6299
vn -0.6979 -0.3409 0.6299
vn -0.5791 -0.1871 0.7935
vn -0.5758 0.2773 0.7692
vn 0.5758 0.2773 0.7692
vn -0.9621 0.0199 0.2719
vn 0.9621 0.0199 0.2719
# 134 vertex normals

vt 0.8553 0.0000 1.0000
vt 0.8397 0.0000 0.9932
vt 0.8324 0.0000 0.9876
vt 0.8684 0.0000 1.0000
vt 0.8421 0.0000 1.0000
vt 0.8553 1.0000 1.0000
vt 0.8421 1.0000 1.0000
vt 0.8684 1.0000 1.0000
vt 0.8816 0.0000 1.0000
vt 0.8816 1.0000 1.0000
vt 0.8947 0.0000 1.0000
vt 0.8947 1.0000 1.0000
vt 0.9079 0.0000 1.0000
vt 0.9079 1.0000 1.0000
vt 0.9211 0.0000 1.0000
vt 0.9211 1.0000 1.0000
vt 0.9342 0.0000 1.0000
vt 0.9342 1.0000 1.0000
vt 0.9474 0.0000 1.0000
vt 0.9474 1.0000 1.0000
vt 0.9605 0.0000 1.0000
vt 0.9605 1.0000 1.0000
vt 0.9737 0.0000 1.0000
vt 0.9737 1.0000 1.0000
vt 0.9868 0.0000 1.0000
vt 0.9868 1.0000 1.0000
vt -0.0132 0.0000 1.0000
vt 0.0000 0.0000 1.0000
vt 0.0000 1.0000 1.0000
vt -0.0132 1.0000 1.0000
vt 0.0132 0.0000 1.0000
vt 0.0132 1.0000 1.0000
vt 0.0263 0.0000 1.0000
vt 0.0263 1.0000 1.0000
vt 0.0395 0.0000 1.0000
vt 0.0395 1.0000 1.0000
vt 0.0526 0.0000 1.0000
vt 0.0526 1.0000 1.0000
vt 0.0658 0.0000 1.0000
vt 0.0658 1.0000 1.0000
vt 0.0789 0.0000 1.0000
vt 0.0789 1.0000 1.0000
vt 0.0921 0.0000 1.0000
vt 0.0921 1.0000 1.0000
vt 0.1053 0.0000 1.0000
vt 0.1053 1.0000 1.0000
vt 0.1184 0.0000 1.0000
vt 0.1184 1.0000 1.0000
vt 0.1316 0.0000 1.0000
vt 0.1316 1.0000 1.0000
vt 0.1447 0.0000 1.0000
vt 0.1447 1.0000 1.0000
vt 0.1579 0.0000 1.0000
vt 0.1579 1.0000 1.0000
vt 0.1711 0.0000 1.0000
vt 0.1711 1.0000 1.0000
vt 0.1842 0.0000 1.0000
vt 0.1842 1.0000 1.0000
vt 0.1974 0.0000 1.0000
vt 0.1974 1.0000 1.0000
vt 0.2105 0.0000 1.0000
vt 0.2105 1.0000 1.0000
vt 0.2237 0.0000 1.0000
vt 0.2237 1.0000 1.0000
vt 0.2368 0.0000 1.0000
vt 0.2368 1.0000 1.0000
vt 0.2500 0.0000 1.0000
vt 0.2500 1.0000 1.0000
vt 0.2632 0.0000 1.0000
vt 0.2632 1.0000 1.0000
vt 0.2763 0.0000 1.0000
vt 0.2763 1.0000 1.0000
vt 0.2895 0.0000 1.0000
vt 0.2895 1.0000 1.0000
vt 0.3026 0.0000 1.0000
vt 0.3026 1.0000 1.0000
vt 0.3158 0.0000 1.0000
vt 0.3158 1.0000 1.0000
vt 0.3289 0.0000 1.0000
vt 0.3289 1.0000 1.0000
vt 0.3421 0.0000 1.0000
vt 0.3421 1.0000 1.0000
vt 0.3553 0.0000 1.0000
vt 0.3553 1.0000 1.0000
vt 0.3684 0.0000 1.0000
vt 0.3684 1.0000 1.0000
vt 0.3816 0.0000 1.0000
vt 0.3816 1.0000 1.0000
vt 0.3947 0.0000 1.0000
vt 0.3947 1.0000 1.0000
vt 0.4079 0.0000 1.0000
vt 0.4079 1.0000 1.0000
vt 0.4211 0.0000 1.0000
vt 0.4211 1.0000 1.0000
vt 0.4342 0.0000 1.0000
vt 0.4342 1.0000 1.0000
vt 0.4474 0.0000 1.0000
vt 0.4474 1.0000 1.0000
vt 0.4605 0.0000 1.0000
vt 0.4605 1.0000 1.0000
vt 0.4737 0.0000 1.0000
vt 0.4737 1.0000 1.0000
vt 0.4868 0.0000 1.0000
vt 0.4868 1.0000 1.0000
vt 0.5000 0.0000 1.0000
vt 0.5000 1.0000 1.0000
vt 0.5132 0.0000 1.0000
vt 0.5132 1.0000 1.0000
vt 0.5263 0.0000 1.0000
vt 0.5263 1.0000 1.0000
vt 0.5395 0.0000 1.0000
vt 0.5395 1.0000 1.0000
vt 0.5526 0.0000 1.0000
vt 0.5526 1.0000 1.0000
vt 0.5658 0.0000 1.0000
vt 0.5658 1.0000 1.0000
vt 0.5789 0.0000 1.0000
vt 0.5789 1.0000 1.0000
vt 0.5921 0.0000 1.0000
vt 0.5921 1.0000 1.0000
vt 0.6053 0.0000 1.0000
vt 0.6053 1.0000 1.0000
vt 0.6184 0.0000 1.0000
vt 0.6184 1.0000 1.0000
vt 0.6316 0.0000 1.0000
vt 0.6316 1.0000 1.0000
vt 0.6447 0.0000 1.0000
vt 0.6447 1.0000 1.0000
vt 0.6579 0.0000 1.0000
vt 0.6579 1.0000 1.0000
vt 0.6711 0.0000 1.0000
vt 0.6711 1.0000 1.0000
vt 0.8358 1.0000 0.9972
vt 0.8660 1.0000 0.9932
vt 0.6806 1.0000 1.0000
vt 0.6806 0.0000 1.0000
vt 0.8367 1.0000 1.0000
vt 0.8367 0.0000 1.0000
vt 0.8152 0.9852 0.0000
vt 0.8152 0.0000 0.0000
vt 0.2382 0.0000 0.0000
vt 0.2382 0.9852 0.0000
vt 0.2382 1.0000 0.0000
vt 0.8152 1.0000 0.0000
vt 0.8152 0.1226 0.0000
vt 0.2382 0.1226 0.0000
vt 0.4508 0.0000 0.2856
vt 0.4956 0.0000 -0.0009
vt 0.5071 0.0000 0.4190
vt 0.4833 0.0000 0.3638
vt 0.3868 0.0000 0.1238
vt 0.4185 0.0000 0.2054
vt 0.3260 0.0000 -0.0414
vt 0.3559 0.0000 0.0414
vt 0.2699 0.0000 -0.2054
vt 0.2972 0.0000 -0.1238
vt 0.2200 0.0000 -0.3638
vt 0.2441 0.0000 -0.2856
vt 0.1779 0.0000 -0.5123
vt 0.1979 0.0000 -0.4396
vt 0.1445 0.0000 -0.6468
vt 0.1600 0.0000 -0.5816
vt 0.1208 0.0000 -0.7637
vt 0.1313 0.0000 -0.7077
vt 0.1074 0.0000 -0.8598
vt 0.1128 0.0000 -0.8145
vt 0.1048 0.0000 -0.9324
vt 0.1047 0.0000 -0.8992
vt 0.1129 0.0000 -0.9796
vt 0.1075 0.0000 -0.9592
vt 0.1316 0.0000 -1.0000
vt 0.1209 0.0000 -0.9932
vt 0.1603 0.0000 -0.9932
vt 0.1447 0.0000 -1.0000
vt 0.1983 0.0000 -0.9592
vt 0.1782 0.0000 -0.9796
vt 0.2446 0.0000 -0.8992
vt 0.2205 0.0000 -0.9324
vt 0.2978 0.0000 -0.8145
vt 0.2704 0.0000 -0.8598
vt 0.3565 0.0000 -0.7077
vt 0.3265 0.0000 -0.7637
vt 0.4191 0.0000 -0.5816
vt 0.3874 0.0000 -0.6469
vt 0.4840 0.0000 -0.4396
vt 0.4514 0.0000 -0.5123
vt 0.5492 0.0000 -0.2856
vt 0.5167 0.0000 -0.3638
vt 0.6132 0.0000 -0.1238
vt 0.5815 0.0000 -0.2054
vt 0.6740 0.0000 0.0414
vt 0.6441 0.0000 -0.0414
vt 0.7301 0.0000 0.2054
vt 0.7028 0.0000 0.1238
vt 0.7559 0.0000 0.2856
vt 0.8021 0.0000 0.4396
vt 0.7800 0.0000 0.3638
vt 0.8400 0.0000 0.5816
vt 0.8221 0.0000 0.5123
vt 0.8687 0.0000 0.7077
vt 0.8555 0.0000 0.6469
vt 0.8872 0.0000 0.8145
vt 0.8792 0.0000 0.7637
vt 0.8953 0.0000 0.8992
vt 0.8926 0.0000 0.8598
vt 0.8925 0.0000 0.9592
vt 0.8952 0.0000 0.9324
vt 0.8791 0.0000 0.9932
vt 0.8871 0.0000 0.9796
vt 0.4785 1.0000 0.3638
vt 0.5102 1.0000 0.4396
vt 0.5333 1.0000 0.4925
vt 0.4964 1.0000 0.0012
vt 0.4158 1.0000 0.2054
vt 0.4470 1.0000 0.2856
vt 0.3554 1.0000 0.0414
vt 0.3852 1.0000 0.1238
vt 0.2989 1.0000 -0.1238
vt 0.3265 1.0000 -0.0414
vt 0.2478 1.0000 -0.2856
vt 0.2726 1.0000 -0.2054
vt 0.2037 1.0000 -0.4396
vt 0.2248 1.0000 -0.3638
vt 0.1676 1.0000 -0.5816
vt 0.1846 1.0000 -0.5123
vt 0.1407 1.0000 -0.7077
vt 0.1530 1.0000 -0.6468
vt 0.1235 1.0000 -0.8145
vt 0.1308 1.0000 -0.7637
vt 0.1166 1.0000 -0.8992
vt 0.1187 1.0000 -0.8598
vt 0.1201 1.0000 -0.9592
vt 0.1170 1.0000 -0.9324
vt 0.1340 1.0000 -0.9932
vt 0.1258 1.0000 -0.9796
vt 0.1579 1.0000 -1.0000
vt 0.1447 1.0000 -1.0000
vt 0.1911 1.0000 -0.9796
vt 0.1734 1.0000 -0.9932
vt 0.2328 1.0000 -0.9324
vt 0.2110 1.0000 -0.9592
vt 0.2817 1.0000 -0.8598
vt 0.2564 1.0000 -0.8992
vt 0.3366 1.0000 -0.7637
vt 0.3085 1.0000 -0.8145
vt 0.3959 1.0000 -0.6469
vt 0.3658 1.0000 -0.7077
vt 0.4581 1.0000 -0.5123
vt 0.4268 1.0000 -0.5816
vt 0.5215 1.0000 -0.3638
vt 0.4898 1.0000 -0.4396
vt 0.5842 1.0000 -0.2054
vt 0.5530 1.0000 -0.2856
vt 0.6446 1.0000 -0.0414
vt 0.6148 1.0000 -0.1238
vt 0.7011 1.0000 0.1238
vt 0.6735 1.0000 0.0414
vt 0.7274 1.0000 0.2054
vt 0.7752 1.0000 0.3638
vt 0.7522 1.0000 0.2856
vt 0.8154 1.0000 0.5123
vt 0.7963 1.0000 0.4396
vt 0.8470 1.0000 0.6469
vt 0.8324 1.0000 0.5816
vt 0.8692 1.0000 0.7637
vt 0.8593 1.0000 0.7077
vt 0.8813 1.0000 0.8598
vt 0.8765 1.0000 0.8145
vt 0.8830 1.0000 0.9324
vt 0.8834 1.0000 0.8992
vt 0.8742 1.0000 0.9796
vt 0.8799 1.0000 0.9592
# 272 texture coords

o Cylinder001
g Cylinder001
usemtl pacman_wire_086086086
s 1
f 1/1/1 2/2/2 3/3/3 4/4/4 
s 8
f 2/5/2 1/1/1 5/6/5 6/7/6 
f 5/6/5 1/1/1 4/4/4 7/8/7 
f 7/8/7 4/4/4 8/9/8 9/10/9 
f 9/10/9 8/9/8 10/11/10 11/12/11 
f 11/12/11 10/11/10 12/13/12 13/14/13 
f 13/14/13 12/13/12 14/15/14 15/16/15 
f 15/16/15 14/15/14 16/17/16 17/18/17 
f 17/18/17 16/17/16 18/19/18 19/20/19 
f 19/20/19 18/19/18 20/21/20 21/22/21 
f 21/22/21 20/21/20 22/23/22 23/24/23 
f 23/24/23 22/23/22 24/25/24 25/26/25 
f 24/27/24 26/28/26 27/29/27 25/30/25 
f 27/29/27 26/28/26 28/31/28 29/32/29 
f 29/32/29 28/31/28 30/33/30 31/34/31 
f 31/34/31 30/33/30 32/35/32 33/36/33 
f 33/36/33 32/35/32 34/37/34 35/38/35 
f 34/37/34 36/39/36 37/40/37 35/38/35 
f 37/40/37 36/39/36 38/41/38 39/42/39 
f 39/42/39 38/41/38 40/43/40 41/44/41 
f 40/43/40 42/45/42 43/46/43 41/44/41 
f 43/46/43 42/45/42 44/47/44 45/48/45 
f 45/48/45 44/47/44 46/49/46 47/50/47 
f 46/49/46 48/51/48 49/52/49 47/50/47 
f 49/52/49 48/51/48 50/53/50 51/54/51 
f 51/54/51 50/53/50 52/55/52 53/56/53 
f 53/56/53 52/55/52 54/57/54 55/58/55 
f 55/58/55 54/57/54 56/59/56 57/60/57 
f 57/60/57 56/59/56 58/61/58 59/62/59 
f 59/62/59 58/61/58 60/63/60 61/64/61 
f 61/64/61 60/63/60 62/65/62 63/66/63 
f 63/66/63 62/65/62 64/67/64 65/68/65 
f 65/68/65 64/67/64 66/69/66 67/70/67 
f 67/70/67 66/69/66 68/71/68 69/72/69 
f 69/72/69 68/71/68 70/73/70 71/74/71 
f 70/73/70 72/75/72 73/76/73 71/74/71 
f 72/75/72 74/77/74 75/78/75 73/76/73 
f 75/78/75 74/77/74 76/79/76 77/80/77 
f 76/79/76 78/81/78 79/82/79 77/80/77 
f 78/81/78 80/83/80 81/84/81 79/82/79 
f 81/84/81 80/83/80 82/85/82 83/86/83 
f 83/86/83 82/85/82 84/87/84 85/88/85 
f 85/88/85 84/87/84 86/89/86 87/90/87 
f 87/90/87 86/89/86 88/91/88 89/92/89 
f 88/91/88 90/93/90 91/94/91 89/92/89 
f 91/94/91 90/93/90 92/95/92 93/96/93 
f 93/96/93 92/95/92 94/97/94 95/98/95 
f 95/98/95 94/97/94 96/99/96 97/100/97 
f 97/100/97 96/99/96 98/101/98 99/102/99 
f 98/101/98 100/103/100 101/104/101 99/102/99 
f 101/104/101 100/103/100 102/105/102 103/106/103 
f 103/106/103 102/105/102 104/107/104 105/108/105 
f 105/108/105 104/107/104 106/109/106 107/110/107 
f 107/110/107 106/109/106 108/111/108 109/112/109 
f 108/111/108 110/113/110 111/114/111 109/112/109 
f 111/114/111 110/113/110 112/115/112 113/116/113 
f 113/116/113 112/115/112 114/117/114 115/118/115 
f 115/118/115 114/117/114 116/119/116 117/120/117 
f 117/120/117 116/119/116 118/121/118 119/122/119 
f 119/122/119 118/121/118 120/123/120 121/124/121 
f 121/124/121 120/123/120 122/125/122 123/126/123 
f 122/125/122 124/127/124 125/128/125 123/126/123 
f 125/128/125 124/127/124 126/129/126 127/130/127 
f 126/129/126 128/131/128 129/132/129 127/130/127 
s 1
f 130/133/130 6/7/6 5/6/5 7/134/7 
s 8
f 131/135/131 129/132/129 128/131/128 132/136/132 
f 6/7/6 130/137/130 3/138/3 2/5/2 
s 4
f 130/139/130 133/140/133 134/141/134 3/142/3 
s 2
f 134/143/134 133/144/133 131/145/131 132/146/132 
s 1
f 126/147/126 134/148/134 132/149/132 128/150/128 
f 122/151/122 134/148/134 126/147/126 124/152/124 
f 118/153/118 134/148/134 122/151/122 120/154/120 
f 114/155/114 134/148/134 118/153/118 116/156/116 
f 110/157/110 134/148/134 114/155/114 112/158/112 
f 106/159/106 134/148/134 110/157/110 108/160/108 
f 102/161/102 134/148/134 106/159/106 104/162/104 
f 98/163/98 134/148/134 102/161/102 100/164/100 
f 94/165/94 134/148/134 98/163/98 96/166/96 
f 90/167/90 134/148/134 94/165/94 92/168/92 
f 86/169/86 134/148/134 90/167/90 88/170/88 
f 82/171/82 134/148/134 86/169/86 84/172/84 
f 78/173/78 134/148/134 82/171/82 80/174/80 
f 74/175/74 134/148/134 78/173/78 76/176/76 
f 70/177/70 134/148/134 74/175/74 72/178/72 
f 66/179/66 134/148/134 70/177/70 68/180/68 
f 62/181/62 134/148/134 66/179/66 64/182/64 
f 58/183/58 134/148/134 62/181/62 60/184/60 
f 54/185/54 134/148/134 58/183/58 56/186/56 
f 50/187/50 134/148/134 54/185/54 52/188/52 
f 46/189/46 134/148/134 50/187/50 48/190/48 
f 42/191/42 134/148/134 46/189/46 44/192/44 
f 38/193/38 134/148/134 42/191/42 40/194/40 
f 36/195/36 3/3/3 134/148/134 38/193/38 
f 32/196/32 3/3/3 36/195/36 34/197/34 
f 28/198/28 3/3/3 32/196/32 30/199/30 
f 24/200/24 3/3/3 28/198/28 26/201/26 
f 20/202/20 3/3/3 24/200/24 22/203/22 
f 16/204/16 3/3/3 20/202/20 18/205/18 
f 12/206/12 3/3/3 16/204/16 14/207/14 
f 8/208/8 3/3/3 12/206/12 10/209/10 
f 4/4/4 3/3/3 8/208/8 
f 127/210/127 129/211/129 131/212/131 133/213/133 
f 123/214/123 125/215/125 127/210/127 133/213/133 
f 119/216/119 121/217/121 123/214/123 133/213/133 
f 115/218/115 117/219/117 119/216/119 133/213/133 
f 111/220/111 113/221/113 115/218/115 133/213/133 
f 107/222/107 109/223/109 111/220/111 133/213/133 
f 103/224/103 105/225/105 107/222/107 133/213/133 
f 99/226/99 101/227/101 103/224/103 133/213/133 
f 95/228/95 97/229/97 99/226/99 133/213/133 
f 91/230/91 93/231/93 95/228/95 133/213/133 
f 87/232/87 89/233/89 91/230/91 133/213/133 
f 83/234/83 85/235/85 87/232/87 133/213/133 
f 79/236/79 81/237/81 83/234/83 133/213/133 
f 75/238/75 77/239/77 79/236/79 133/213/133 
f 71/240/71 73/241/73 75/238/75 133/213/133 
f 67/242/67 69/243/69 71/240/71 133/213/133 
f 63/244/63 65/245/65 67/242/67 133/213/133 
f 59/246/59 61/247/61 63/244/63 133/213/133 
f 55/248/55 57/249/57 59/246/59 133/213/133 
f 51/250/51 53/251/53 55/248/55 133/213/133 
f 47/252/47 49/253/49 51/250/51 133/213/133 
f 43/254/43 45/255/45 47/252/47 133/213/133 
f 39/256/39 41/257/41 43/254/43 133/213/133 
f 37/258/37 39/256/39 133/213/133 130/133/130 
f 33/259/33 35/260/35 37/258/37 130/133/130 
f 29/261/29 31/262/31 33/259/33 130/133/130 
f 25/263/25 27/264/27 29/261/29 130/133/130 
f 21/265/21 23/266/23 25/263/25 130/133/130 
f 17/267/17 19/268/19 21/265/21 130/133/130 
f 13/269/13 15/270/15 17/267/17 130/133/130 
f 9/271/9 11/272/11 13/269/13 130/133/130 
f 130/133/130 7/134/7 9/271/9 
# 131 polygons - 2 triangles

