# Blender 4.1.1
# www.blender.org
mtllib point.mtl
o Coin
v 0.021146 0.315633 0.111297
v 0.021146 0.285370 0.079779
v 0.021146 0.354155 0.131920
v 0.021146 0.397165 0.139631
v 0.021146 0.440452 0.133673
v 0.021146 0.479779 0.114630
v 0.021146 0.511297 0.084367
v 0.021146 0.531921 0.045845
v 0.021146 0.539631 0.002835
v 0.021146 0.533673 -0.040452
v 0.021146 0.514630 -0.079779
v 0.021146 0.484367 -0.111297
v 0.021146 0.445845 -0.131921
v 0.021146 0.402835 -0.139631
v 0.021146 0.359548 -0.133673
v 0.021146 0.320221 -0.114630
v 0.021146 0.288703 -0.084366
v 0.021146 0.268079 -0.045844
v 0.021146 0.260369 -0.002835
v 0.021146 0.266327 0.040452
v 0.047281 0.279746 0.083694
v 0.040512 0.285370 0.079779
v 0.040512 0.315633 0.111297
v 0.047281 0.311494 0.116758
v 0.040512 0.354155 0.131920
v 0.047281 0.351906 0.138393
v 0.040512 0.397165 0.139631
v 0.047281 0.397026 0.146482
v 0.040512 0.440452 0.133673
v 0.047281 0.442437 0.140232
v 0.040512 0.479779 0.114630
v 0.047280 0.483694 0.120254
v 0.040512 0.511297 0.084367
v 0.047280 0.516758 0.088506
v 0.040512 0.531921 0.045845
v 0.047280 0.538393 0.048094
v 0.040512 0.539631 0.002835
v 0.047280 0.546482 0.002974
v 0.040512 0.533673 -0.040452
v 0.047280 0.540232 -0.042437
v 0.040512 0.514630 -0.079779
v 0.047280 0.520254 -0.083694
v 0.040512 0.484367 -0.111297
v 0.047280 0.488506 -0.116758
v 0.040512 0.445845 -0.131921
v 0.047280 0.448094 -0.138393
v 0.040512 0.402835 -0.139631
v 0.047280 0.402974 -0.146482
v 0.040512 0.359548 -0.133673
v 0.047280 0.357563 -0.140231
v 0.040512 0.320221 -0.114630
v 0.047280 0.316306 -0.120254
v 0.040512 0.288703 -0.084366
v 0.047280 0.283242 -0.088506
v 0.040512 0.268079 -0.045844
v 0.047280 0.261607 -0.048094
v 0.040512 0.260369 -0.002835
v 0.047281 0.253518 -0.002974
v 0.040512 0.266327 0.040452
v 0.047281 0.259769 0.042437
v 0.047281 0.283322 0.153923
v 0.040512 0.279182 0.159384
v 0.040512 0.235843 0.114248
v 0.047281 0.241468 0.110334
v 0.047281 0.336597 0.182445
v 0.040512 0.334348 0.188917
v 0.047281 0.396079 0.193108
v 0.040512 0.395940 0.199959
v 0.047281 0.455944 0.184868
v 0.040512 0.457929 0.191427
v 0.047281 0.510334 0.158532
v 0.040512 0.514248 0.164157
v 0.047280 0.553923 0.116678
v 0.040512 0.559384 0.120818
v 0.047280 0.582445 0.063403
v 0.040512 0.588917 0.065652
v 0.047280 0.593108 0.003921
v 0.040512 0.599959 0.004060
v 0.047280 0.584868 -0.055945
v 0.040512 0.591427 -0.057929
v 0.047280 0.558532 -0.110334
v 0.040512 0.564157 -0.114248
v 0.047280 0.516678 -0.153923
v 0.040512 0.520817 -0.159384
v 0.047280 0.463403 -0.182445
v 0.040512 0.465652 -0.188918
v 0.047280 0.403921 -0.193108
v 0.040512 0.404060 -0.199959
v 0.047280 0.344055 -0.184868
v 0.040512 0.342071 -0.191427
v 0.047280 0.289666 -0.158532
v 0.040512 0.285752 -0.164156
v 0.047280 0.246077 -0.116678
v 0.040512 0.240616 -0.120817
v 0.047280 0.217555 -0.063402
v 0.040512 0.211082 -0.065652
v 0.047281 0.206892 -0.003921
v 0.040512 0.200041 -0.004060
v 0.047281 0.215132 0.055945
v 0.040512 0.208573 0.057930
v -0.000000 0.235843 0.114248
v 0.000000 0.279182 0.159384
v 0.000000 0.334348 0.188917
v -0.000000 0.395940 0.199959
v -0.000000 0.457929 0.191427
v -0.000000 0.514248 0.164157
v -0.000000 0.559384 0.120818
v -0.000000 0.588917 0.065652
v -0.000000 0.599959 0.004060
v -0.000000 0.591427 -0.057929
v -0.000000 0.564157 -0.114248
v -0.000000 0.520817 -0.159384
v -0.000000 0.465652 -0.188918
v -0.000000 0.404060 -0.199959
v -0.000000 0.342071 -0.191427
v -0.000000 0.285752 -0.164156
v -0.000000 0.240616 -0.120817
v -0.000000 0.211082 -0.065652
v -0.000000 0.200041 -0.004060
v -0.000000 0.208573 0.057930
v -0.021146 0.315633 0.111297
v -0.021146 0.285370 0.079779
v -0.021146 0.354155 0.131920
v -0.021146 0.397165 0.139631
v -0.021146 0.440452 0.133673
v -0.021146 0.479779 0.114630
v -0.021146 0.511297 0.084367
v -0.021146 0.531921 0.045845
v -0.021146 0.539631 0.002835
v -0.021146 0.533673 -0.040452
v -0.021146 0.514630 -0.079779
v -0.021146 0.484367 -0.111297
v -0.021146 0.445845 -0.131921
v -0.021146 0.402835 -0.139631
v -0.021146 0.359548 -0.133673
v -0.021146 0.320221 -0.114630
v -0.021146 0.288703 -0.084366
v -0.021146 0.268079 -0.045844
v -0.021146 0.260369 -0.002835
v -0.021146 0.266327 0.040452
v -0.047281 0.279746 0.083694
v -0.040512 0.285370 0.079779
v -0.040512 0.315633 0.111297
v -0.047281 0.311494 0.116758
v -0.040512 0.354155 0.131920
v -0.047281 0.351906 0.138393
v -0.040512 0.397165 0.139631
v -0.047281 0.397026 0.146482
v -0.040512 0.440452 0.133673
v -0.047281 0.442437 0.140232
v -0.040512 0.479779 0.114630
v -0.047281 0.483694 0.120254
v -0.040512 0.511297 0.084367
v -0.047281 0.516758 0.088506
v -0.040512 0.531921 0.045845
v -0.047281 0.538393 0.048094
v -0.040512 0.539631 0.002835
v -0.047281 0.546482 0.002974
v -0.040512 0.533673 -0.040452
v -0.047281 0.540232 -0.042437
v -0.040512 0.514630 -0.079779
v -0.047281 0.520254 -0.083694
v -0.040512 0.484367 -0.111297
v -0.047281 0.488506 -0.116758
v -0.040512 0.445845 -0.131921
v -0.047281 0.448094 -0.138393
v -0.040512 0.402835 -0.139631
v -0.047281 0.402974 -0.146482
v -0.040512 0.359548 -0.133673
v -0.047281 0.357563 -0.140231
v -0.040512 0.320221 -0.114630
v -0.047281 0.316306 -0.120254
v -0.040512 0.288703 -0.084366
v -0.047281 0.283242 -0.088506
v -0.040512 0.268079 -0.045844
v -0.047281 0.261607 -0.048094
v -0.040512 0.260369 -0.002835
v -0.047281 0.253518 -0.002974
v -0.040512 0.266327 0.040452
v -0.047281 0.259769 0.042437
v -0.047281 0.283322 0.153923
v -0.040512 0.279182 0.159384
v -0.040512 0.235843 0.114248
v -0.047281 0.241468 0.110334
v -0.047281 0.336597 0.182445
v -0.040512 0.334348 0.188917
v -0.047281 0.396079 0.193108
v -0.040512 0.395940 0.199959
v -0.047281 0.455944 0.184868
v -0.040512 0.457929 0.191427
v -0.047281 0.510334 0.158532
v -0.040512 0.514248 0.164157
v -0.047281 0.553923 0.116678
v -0.040512 0.559384 0.120818
v -0.047281 0.582445 0.063403
v -0.040512 0.588917 0.065652
v -0.047281 0.593108 0.003921
v -0.040512 0.599959 0.004060
v -0.047281 0.584868 -0.055944
v -0.040512 0.591427 -0.057929
v -0.047281 0.558532 -0.110334
v -0.040512 0.564157 -0.114248
v -0.047281 0.516678 -0.153923
v -0.040512 0.520817 -0.159384
v -0.047281 0.463403 -0.182445
v -0.040512 0.465652 -0.188918
v -0.047281 0.403921 -0.193108
v -0.040512 0.404060 -0.199959
v -0.047281 0.344055 -0.184868
v -0.040512 0.342071 -0.191427
v -0.047281 0.289666 -0.158532
v -0.040512 0.285752 -0.164156
v -0.047281 0.246077 -0.116678
v -0.040512 0.240616 -0.120817
v -0.047281 0.217555 -0.063402
v -0.040512 0.211082 -0.065652
v -0.047281 0.206892 -0.003921
v -0.040512 0.200041 -0.004060
v -0.047281 0.215132 0.055945
v -0.040512 0.208573 0.057930
vn -0.0000 -0.6041 0.7969
vn 0.3725 -0.5606 0.7396
vn 0.3725 -0.3046 0.8766
vn -0.0000 -0.3283 0.9446
vn -0.0000 -0.9571 0.2896
vn 0.3725 -0.8882 0.2688
vn 0.3725 -0.7617 0.5301
vn -0.0000 -0.8208 0.5712
vn -0.0000 -0.0203 0.9998
vn 0.3725 -0.0188 0.9278
vn 0.3725 0.2688 0.8882
vn -0.0000 0.2896 0.9571
vn 0.3725 0.5301 0.7617
vn -0.0000 0.5712 0.8208
vn 0.3725 0.7396 0.5606
vn -0.0000 0.7969 0.6041
vn 0.3725 0.8766 0.3046
vn -0.0000 0.9446 0.3283
vn 0.3725 0.9278 0.0188
vn -0.0000 0.9998 0.0203
vn 0.3725 0.8882 -0.2688
vn -0.0000 0.9571 -0.2896
vn 0.3725 0.7617 -0.5301
vn -0.0000 0.8208 -0.5712
vn 0.3725 0.5606 -0.7396
vn -0.0000 0.6041 -0.7969
vn 0.3725 0.3046 -0.8766
vn -0.0000 0.3283 -0.9446
vn 0.3725 0.0188 -0.9278
vn -0.0000 0.0203 -0.9998
vn 0.3725 -0.2688 -0.8882
vn -0.0000 -0.2896 -0.9571
vn 0.3725 -0.5301 -0.7617
vn -0.0000 -0.5712 -0.8208
vn 0.3725 -0.7396 -0.5606
vn -0.0000 -0.7969 -0.6041
vn 0.3725 -0.8766 -0.3046
vn -0.0000 -0.9446 -0.3283
vn 0.3725 -0.9278 -0.0188
vn -0.0000 -0.9998 -0.0203
vn 0.3999 0.5236 0.7523
vn 0.3999 0.2655 0.8773
vn 0.6735 0.2141 0.7075
vn 0.6735 0.4222 0.6067
vn 0.3999 0.7523 -0.5236
vn 0.3999 0.8773 -0.2655
vn 0.6735 0.7075 -0.2141
vn 0.6735 0.6067 -0.4222
vn 0.3999 0.0186 -0.9164
vn 0.3999 0.3009 -0.8658
vn 0.6735 0.2426 -0.6982
vn 0.6735 0.0150 -0.7390
vn 0.3999 -0.2655 -0.8773
vn 0.6735 -0.2141 -0.7075
vn 0.3999 -0.5236 -0.7523
vn 0.6735 -0.4222 -0.6067
vn 0.3999 -0.7304 -0.5537
vn 0.6735 -0.5890 -0.4465
vn 0.3999 -0.8658 -0.3009
vn 0.6735 -0.6982 -0.2426
vn 0.3999 -0.9164 -0.0186
vn 0.6735 -0.7390 -0.0150
vn 0.3999 -0.8773 0.2655
vn 0.6735 -0.7075 0.2141
vn 0.3999 -0.7523 0.5236
vn 0.6735 -0.6067 0.4222
vn 0.3999 -0.5537 0.7304
vn 0.6735 -0.4465 0.5890
vn 0.3999 -0.3009 0.8658
vn 0.6735 -0.2426 0.6982
vn 0.3999 -0.0186 0.9164
vn 0.6735 -0.0150 0.7390
vn 0.9381 -0.0070 0.3464
vn 0.9381 0.1003 0.3316
vn 0.9115 -0.1191 -0.3937
vn 0.9115 0.0084 -0.4113
vn 0.3999 0.7304 0.5537
vn 0.6735 0.5890 0.4465
vn 0.3999 0.8658 0.3009
vn 0.6735 0.6982 0.2426
vn 0.3999 0.9164 0.0186
vn 0.6735 0.7390 0.0150
vn 0.3999 0.5537 -0.7304
vn 0.6735 0.4465 -0.5890
vn 0.9381 -0.2761 -0.2093
vn 0.9381 -0.3272 -0.1137
vn 0.9115 0.3886 0.1350
vn 0.9115 0.3278 0.2485
vn 0.9381 0.1979 0.2843
vn 0.9115 -0.2350 -0.3376
vn 0.9381 -0.3464 -0.0070
vn 0.9115 0.4113 0.0084
vn 0.9381 0.2843 -0.1979
vn 0.9381 0.2093 -0.2761
vn 0.9115 -0.2485 0.3278
vn 0.9115 -0.3376 0.2350
vn 0.9381 0.2761 0.2093
vn 0.9115 -0.3278 -0.2485
vn 0.9381 -0.3316 0.1003
vn 0.9115 0.3937 -0.1191
vn 0.9381 0.1137 -0.3272
vn 0.9115 -0.1350 0.3886
vn 0.9381 0.3272 0.1137
vn 0.9115 -0.3886 -0.1350
vn 0.9381 -0.2843 0.1979
vn 0.9115 0.3376 -0.2350
vn 0.9381 0.0070 -0.3464
vn 0.9115 -0.0084 0.4113
vn 0.9381 0.3464 0.0070
vn 0.9115 -0.4113 -0.0084
vn 0.9381 -0.2093 0.2761
vn 0.9115 0.2485 -0.3278
vn 0.9381 -0.1003 -0.3316
vn 0.9115 0.1191 0.3937
vn 0.9381 0.3316 -0.1003
vn 0.9115 -0.3937 0.1191
vn 0.9381 -0.1137 0.3272
vn 0.9115 0.1350 -0.3886
vn 0.9381 -0.1979 -0.2843
vn 0.9115 0.2350 0.3376
vn -0.3725 -0.3046 0.8766
vn -0.3725 -0.5606 0.7396
vn -0.3725 -0.7617 0.5301
vn -0.3725 -0.8882 0.2688
vn -0.3725 0.2688 0.8882
vn -0.3725 -0.0188 0.9278
vn -0.3725 0.5301 0.7617
vn -0.3725 0.7396 0.5606
vn -0.3725 0.8766 0.3046
vn -0.3725 0.9278 0.0188
vn -0.3725 0.8882 -0.2688
vn -0.3725 0.7617 -0.5301
vn -0.3725 0.5606 -0.7396
vn -0.3725 0.3046 -0.8766
vn -0.3725 0.0188 -0.9278
vn -0.3725 -0.2688 -0.8882
vn -0.3725 -0.5301 -0.7617
vn -0.3725 -0.7396 -0.5606
vn -0.3725 -0.8766 -0.3046
vn -0.3725 -0.9278 -0.0188
vn -0.3999 0.5236 0.7523
vn -0.6735 0.4222 0.6067
vn -0.6735 0.2141 0.7075
vn -0.3999 0.2655 0.8773
vn -0.3999 0.7523 -0.5236
vn -0.6735 0.6067 -0.4222
vn -0.6735 0.7075 -0.2141
vn -0.3999 0.8773 -0.2655
vn -0.3999 0.0186 -0.9164
vn -0.6735 0.0150 -0.7390
vn -0.6735 0.2426 -0.6982
vn -0.3999 0.3009 -0.8658
vn -0.3999 -0.2655 -0.8773
vn -0.6735 -0.2141 -0.7075
vn -0.3999 -0.5236 -0.7523
vn -0.6735 -0.4222 -0.6067
vn -0.3999 -0.7304 -0.5537
vn -0.6735 -0.5890 -0.4465
vn -0.3999 -0.8658 -0.3009
vn -0.6735 -0.6982 -0.2426
vn -0.3999 -0.9164 -0.0186
vn -0.6735 -0.7390 -0.0150
vn -0.3999 -0.8773 0.2655
vn -0.6735 -0.7075 0.2141
vn -0.3999 -0.7523 0.5236
vn -0.6735 -0.6067 0.4222
vn -0.3999 -0.5537 0.7304
vn -0.6735 -0.4465 0.5890
vn -0.3999 -0.3009 0.8658
vn -0.6735 -0.2426 0.6982
vn -0.3999 -0.0186 0.9164
vn -0.6735 -0.0150 0.7390
vn -0.9381 -0.0070 0.3464
vn -0.9115 0.0084 -0.4113
vn -0.9115 -0.1191 -0.3937
vn -0.9381 0.1003 0.3316
vn -0.3999 0.7304 0.5537
vn -0.6735 0.5890 0.4465
vn -0.3999 0.8658 0.3009
vn -0.6735 0.6982 0.2426
vn -0.3999 0.9164 0.0186
vn -0.6735 0.7390 0.0150
vn -0.6735 0.4465 -0.5890
vn -0.3999 0.5537 -0.7304
vn -0.9381 -0.2761 -0.2093
vn -0.9115 0.3278 0.2485
vn -0.9115 0.3886 0.1350
vn -0.9381 -0.3272 -0.1137
vn -0.9115 -0.2350 -0.3376
vn -0.9381 0.1979 0.2843
vn -0.9115 0.4113 0.0084
vn -0.9381 -0.3464 -0.0070
vn -0.9381 0.2843 -0.1979
vn -0.9115 -0.3376 0.2350
vn -0.9115 -0.2485 0.3278
vn -0.9381 0.2093 -0.2761
vn -0.9115 -0.3278 -0.2485
vn -0.9381 0.2761 0.2093
vn -0.9115 0.3937 -0.1191
vn -0.9381 -0.3316 0.1003
vn -0.9115 -0.1350 0.3886
vn -0.9381 0.1137 -0.3272
vn -0.9115 -0.3886 -0.1350
vn -0.9381 0.3272 0.1137
vn -0.9115 0.3376 -0.2350
vn -0.9381 -0.2843 0.1979
vn -0.9115 -0.0084 0.4113
vn -0.9381 0.0070 -0.3464
vn -0.9115 -0.4113 -0.0084
vn -0.9381 0.3464 0.0070
vn -0.9115 0.2485 -0.3278
vn -0.9381 -0.2093 0.2761
vn -0.9115 0.1191 0.3937
vn -0.9381 -0.1003 -0.3316
vn -0.9115 -0.3937 0.1191
vn -0.9381 0.3316 -0.1003
vn -0.9115 0.1350 -0.3886
vn -0.9381 -0.1137 0.3272
vn -0.9115 0.2350 0.3376
vn -0.9381 -0.1979 -0.2843
vt 0.266957 0.050495
vt 0.309162 0.134591
vt 0.206524 0.211129
vt 0.140317 0.144098
vt 0.573922 0.000100
vt 0.558030 0.092813
vt 0.430295 0.093735
vt 0.416375 0.000720
vt 0.048404 0.272204
vt 0.132016 0.315769
vt 0.093115 0.438296
vt 0.000129 0.422406
vt 0.093441 0.566950
vt 0.000100 0.580239
vt 0.133121 0.689098
vt 0.048433 0.730391
vt 0.208281 0.792996
vt 0.140567 0.858354
vt 0.311802 0.868175
vt 0.267838 0.951322
vt 0.433531 0.907174
vt 0.417698 0.999901
vt 0.561412 0.906294
vt 0.575223 0.999403
vt 0.682869 0.865753
vt 0.724913 0.949996
vt 0.785700 0.789400
vt 0.851845 0.856456
vt 0.859871 0.684804
vt 0.943516 0.728211
vt 0.898383 0.562351
vt 0.991398 0.578103
vt 0.898006 0.433671
vt 0.991398 0.420387
vt 0.858375 0.311403
vt 0.943179 0.270151
vt 0.783217 0.207381
vt 0.851079 0.142030
vt 0.679710 0.132030
vt 0.723821 0.048870
vt 0.765933 0.454492
vt 0.765663 0.542202
vt 0.728690 0.537072
vt 0.729824 0.460549
vt 0.452313 0.224081
vt 0.537923 0.223378
vt 0.532835 0.258973
vt 0.458838 0.259533
vt 0.251492 0.375352
vt 0.302115 0.304301
vt 0.328912 0.329605
vt 0.284436 0.391179
vt 0.225446 0.458687
vt 0.262086 0.463928
vt 0.225362 0.546090
vt 0.261418 0.539938
vt 0.252351 0.628978
vt 0.285243 0.612211
vt 0.302377 0.699534
vt 0.327868 0.673901
vt 0.371626 0.750212
vt 0.387541 0.717889
vt 0.453404 0.776221
vt 0.458258 0.740379
vt 0.539628 0.775246
vt 0.533226 0.739266
vt 0.621597 0.748183
vt 0.604517 0.716309
vt 0.690681 0.696677
vt 0.664305 0.671740
vt 0.740393 0.625766
vt 0.707393 0.610302
vt 0.757464 0.634177
vt 0.784637 0.545117
vt 0.878404 0.559398
vt 0.841784 0.675910
vt 0.739166 0.371509
vt 0.706414 0.388269
vt 0.688946 0.300897
vt 0.663441 0.326623
vt 0.619455 0.250021
vt 0.603224 0.282436
vt 0.370996 0.251899
vt 0.388465 0.283576
vt 0.235261 0.637414
vt 0.288866 0.712741
vt 0.222473 0.778736
vt 0.151066 0.679910
vt 0.784828 0.451623
vt 0.878068 0.436923
vt 0.363035 0.766970
vt 0.320819 0.850222
vt 0.449222 0.205522
vt 0.362183 0.235187
vt 0.318566 0.152351
vt 0.433693 0.113516
vt 0.756236 0.363035
vt 0.840416 0.320594
vt 0.450537 0.794873
vt 0.436488 0.887304
vt 0.288482 0.290994
vt 0.220986 0.225154
vt 0.702466 0.287660
vt 0.769002 0.221639
vt 0.542673 0.793945
vt 0.558038 0.886472
vt 0.234446 0.366798
vt 0.150107 0.324714
vt 0.628130 0.233274
vt 0.670662 0.149974
vt 0.630260 0.764979
vt 0.673503 0.847950
vt 0.206552 0.455707
vt 0.113091 0.441287
vt 0.540873 0.204819
vt 0.555057 0.112663
vt 0.704214 0.709924
vt 0.771256 0.775379
vt 0.206505 0.548979
vt 0.113369 0.563702
s 1
usemtl Material.001
f 102/1/1 62/2/2 66/3/3 103/4/4
f 120/5/5 100/6/6 63/7/7 101/8/8
f 104/9/9 68/10/10 70/11/11 105/12/12
f 105/12/12 70/11/11 72/13/13 106/14/14
f 106/14/14 72/13/13 74/15/15 107/16/16
f 107/16/16 74/15/15 76/17/17 108/18/18
f 108/18/18 76/17/17 78/19/19 109/20/20
f 109/20/20 78/19/19 80/21/21 110/22/22
f 110/22/22 80/21/21 82/23/23 111/24/24
f 111/24/24 82/23/23 84/25/25 112/26/26
f 112/26/26 84/25/25 86/27/27 113/28/28
f 113/28/28 86/27/27 88/29/29 114/30/30
f 114/30/30 88/29/29 90/31/31 115/32/32
f 115/32/32 90/31/31 92/33/33 116/34/34
f 116/34/34 92/33/33 94/35/35 117/36/36
f 117/36/36 94/35/35 96/37/37 118/38/38
f 118/38/38 96/37/37 98/39/39 119/40/40
f 119/40/40 98/39/39 100/6/6 120/5/5
f 51/41/41 49/42/42 15/43/43 16/44/44
f 103/4/4 66/3/3 68/10/10 104/9/9
f 22/45/45 59/46/46 20/47/47 2/48/48
f 27/49/49 25/50/50 3/51/51 4/52/52
f 29/53/53 27/49/49 4/52/52 5/54/54
f 31/55/55 29/53/53 5/54/54 6/56/56
f 33/57/57 31/55/55 6/56/56 7/58/58
f 35/59/59 33/57/57 7/58/58 8/60/60
f 37/61/61 35/59/59 8/60/60 9/62/62
f 39/63/63 37/61/61 9/62/62 10/64/64
f 41/65/65 39/63/63 10/64/64 11/66/66
f 43/67/67 41/65/65 11/66/66 12/68/68
f 45/69/69 43/67/67 12/68/68 13/70/70
f 47/71/71 45/69/69 13/70/70 14/72/72
f 48/73/73 50/74/74 89/75/75 87/76/76
f 49/42/42 47/71/71 14/72/72 15/43/43
f 53/77/77 51/41/41 16/44/44 17/78/78
f 55/79/79 53/77/77 17/78/78 18/80/80
f 57/81/81 55/79/79 18/80/80 19/82/82
f 59/46/46 57/81/81 19/82/82 20/47/47
f 101/8/8 63/7/7 62/2/2 102/1/1
f 25/50/50 23/83/83 1/84/84 3/51/51
f 1/84/84 2/48/48 20/47/47 19/82/82 18/80/80 17/78/78 16/44/44 15/43/43 14/72/72 13/70/70 12/68/68 11/66/66 10/64/64 9/62/62 8/60/60 7/58/58 6/56/56 5/54/54 4/52/52 3/51/51
f 34/85/85 36/86/86 75/87/87 73/88/88
f 50/74/74 52/89/89 91/90/90 89/75/75
f 36/86/86 38/91/91 77/92/92 75/87/87
f 21/93/93 24/94/94 61/95/95 64/96/96
f 52/89/89 54/97/97 93/98/98 91/90/90
f 38/91/91 40/99/99 79/100/100 77/92/92
f 24/94/94 26/101/101 65/102/102 61/95/95
f 54/97/97 56/103/103 95/104/104 93/98/98
f 40/99/99 42/105/105 81/106/106 79/100/100
f 26/101/101 28/107/107 67/108/108 65/102/102
f 56/103/103 58/109/109 97/110/110 95/104/104
f 42/105/105 44/111/111 83/112/112 81/106/106
f 28/107/107 30/113/113 69/114/114 67/108/108
f 58/109/109 60/115/115 99/116/116 97/110/110
f 44/111/111 46/117/117 85/118/118 83/112/112
f 30/113/113 32/119/119 71/120/120 69/114/114
f 60/115/115 21/93/93 64/96/96 99/116/116
f 46/117/117 48/73/73 87/76/76 85/118/118
f 32/119/119 34/85/85 73/88/88 71/120/120
f 62/2/2 63/7/7 64/96/96 61/95/95
f 66/3/3 62/2/2 61/95/95 65/102/102
f 68/10/10 66/3/3 65/102/102 67/108/108
f 70/11/11 68/10/10 67/108/108 69/114/114
f 72/13/13 70/11/11 69/114/114 71/120/120
f 74/15/15 72/13/13 71/120/120 73/88/88
f 76/17/17 74/15/15 73/88/88 75/87/87
f 78/19/19 76/17/17 75/87/87 77/92/92
f 80/21/21 78/19/19 77/92/92 79/100/100
f 82/23/23 80/21/21 79/100/100 81/106/106
f 84/25/25 82/23/23 81/106/106 83/112/112
f 86/27/27 84/25/25 83/112/112 85/118/118
f 88/29/29 86/27/27 85/118/118 87/76/76
f 90/31/31 88/29/29 87/76/76 89/75/75
f 92/33/33 90/31/31 89/75/75 91/90/90
f 94/35/35 92/33/33 91/90/90 93/98/98
f 96/37/37 94/35/35 93/98/98 95/104/104
f 98/39/39 96/37/37 95/104/104 97/110/110
f 100/6/6 98/39/39 97/110/110 99/116/116
f 63/7/7 100/6/6 99/116/116 64/96/96
f 24/94/94 21/93/93 22/45/45 23/83/83
f 26/101/101 24/94/94 23/83/83 25/50/50
f 28/107/107 26/101/101 25/50/50 27/49/49
f 30/113/113 28/107/107 27/49/49 29/53/53
f 32/119/119 30/113/113 29/53/53 31/55/55
f 34/85/85 32/119/119 31/55/55 33/57/57
f 36/86/86 34/85/85 33/57/57 35/59/59
f 38/91/91 36/86/86 35/59/59 37/61/61
f 40/99/99 38/91/91 37/61/61 39/63/63
f 42/105/105 40/99/99 39/63/63 41/65/65
f 44/111/111 42/105/105 41/65/65 43/67/67
f 46/117/117 44/111/111 43/67/67 45/69/69
f 48/73/73 46/117/117 45/69/69 47/71/71
f 50/74/74 48/73/73 47/71/71 49/42/42
f 52/89/89 50/74/74 49/42/42 51/41/41
f 54/97/97 52/89/89 51/41/41 53/77/77
f 56/103/103 54/97/97 53/77/77 55/79/79
f 58/109/109 56/103/103 55/79/79 57/81/81
f 60/115/115 58/109/109 57/81/81 59/46/46
f 21/93/93 60/115/115 59/46/46 22/45/45
f 23/83/83 22/45/45 2/48/48 1/84/84
f 102/1/1 103/4/4 186/3/121 182/2/122
f 120/5/5 101/8/8 183/7/123 220/6/124
f 104/9/9 105/12/12 190/11/125 188/10/126
f 105/12/12 106/14/14 192/13/127 190/11/125
f 106/14/14 107/16/16 194/15/128 192/13/127
f 107/16/16 108/18/18 196/17/129 194/15/128
f 108/18/18 109/20/20 198/19/130 196/17/129
f 109/20/20 110/22/22 200/21/131 198/19/130
f 110/22/22 111/24/24 202/23/132 200/21/131
f 111/24/24 112/26/26 204/25/133 202/23/132
f 112/26/26 113/28/28 206/27/134 204/25/133
f 113/28/28 114/30/30 208/29/135 206/27/134
f 114/30/30 115/32/32 210/31/136 208/29/135
f 115/32/32 116/34/34 212/33/137 210/31/136
f 116/34/34 117/36/36 214/35/138 212/33/137
f 117/36/36 118/38/38 216/37/139 214/35/138
f 118/38/38 119/40/40 218/39/140 216/37/139
f 119/40/40 120/5/5 220/6/124 218/39/140
f 171/41/141 136/44/142 135/43/143 169/42/144
f 103/4/4 104/9/9 188/10/126 186/3/121
f 142/45/145 122/48/146 140/47/147 179/46/148
f 147/49/149 124/52/150 123/51/151 145/50/152
f 149/53/153 125/54/154 124/52/150 147/49/149
f 151/55/155 126/56/156 125/54/154 149/53/153
f 153/57/157 127/58/158 126/56/156 151/55/155
f 155/59/159 128/60/160 127/58/158 153/57/157
f 157/61/161 129/62/162 128/60/160 155/59/159
f 159/63/163 130/64/164 129/62/162 157/61/161
f 161/65/165 131/66/166 130/64/164 159/63/163
f 163/67/167 132/68/168 131/66/166 161/65/165
f 165/69/169 133/70/170 132/68/168 163/67/167
f 167/71/171 134/72/172 133/70/170 165/69/169
f 168/73/173 207/76/174 209/75/175 170/74/176
f 169/42/144 135/43/143 134/72/172 167/71/171
f 173/77/177 137/78/178 136/44/142 171/41/141
f 175/79/179 138/80/180 137/78/178 173/77/177
f 177/81/181 139/82/182 138/80/180 175/79/179
f 179/46/148 140/47/147 139/82/182 177/81/181
f 101/8/8 102/1/1 182/2/122 183/7/123
f 145/50/152 123/51/151 121/84/183 143/83/184
f 121/84/183 123/51/151 124/52/150 125/54/154 126/56/156 127/58/158 128/60/160 129/62/162 130/64/164 131/66/166 132/68/168 133/70/170 134/72/172 135/43/143 136/44/142 137/78/178 138/80/180 139/82/182 140/47/147 122/48/146
f 154/85/185 193/88/186 195/87/187 156/86/188
f 170/74/176 209/75/175 211/90/189 172/89/190
f 156/86/188 195/87/187 197/92/191 158/91/192
f 141/93/193 184/96/194 181/95/195 144/94/196
f 172/89/190 211/90/189 213/98/197 174/97/198
f 158/91/192 197/92/191 199/100/199 160/99/200
f 144/94/196 181/95/195 185/102/201 146/101/202
f 174/97/198 213/98/197 215/104/203 176/103/204
f 160/99/200 199/100/199 201/106/205 162/105/206
f 146/101/202 185/102/201 187/108/207 148/107/208
f 176/103/204 215/104/203 217/110/209 178/109/210
f 162/105/206 201/106/205 203/112/211 164/111/212
f 148/107/208 187/108/207 189/114/213 150/113/214
f 178/109/210 217/110/209 219/116/215 180/115/216
f 164/111/212 203/112/211 205/118/217 166/117/218
f 150/113/214 189/114/213 191/120/219 152/119/220
f 180/115/216 219/116/215 184/96/194 141/93/193
f 166/117/218 205/118/217 207/76/174 168/73/173
f 152/119/220 191/120/219 193/88/186 154/85/185
f 182/2/122 181/95/195 184/96/194 183/7/123
f 186/3/121 185/102/201 181/95/195 182/2/122
f 188/10/126 187/108/207 185/102/201 186/3/121
f 190/11/125 189/114/213 187/108/207 188/10/126
f 192/13/127 191/120/219 189/114/213 190/11/125
f 194/15/128 193/88/186 191/120/219 192/13/127
f 196/17/129 195/87/187 193/88/186 194/15/128
f 198/19/130 197/92/191 195/87/187 196/17/129
f 200/21/131 199/100/199 197/92/191 198/19/130
f 202/23/132 201/106/205 199/100/199 200/21/131
f 204/25/133 203/112/211 201/106/205 202/23/132
f 206/27/134 205/118/217 203/112/211 204/25/133
f 208/29/135 207/76/174 205/118/217 206/27/134
f 210/31/136 209/75/175 207/76/174 208/29/135
f 212/33/137 211/90/189 209/75/175 210/31/136
f 214/35/138 213/98/197 211/90/189 212/33/137
f 216/37/139 215/104/203 213/98/197 214/35/138
f 218/39/140 217/110/209 215/104/203 216/37/139
f 220/6/124 219/116/215 217/110/209 218/39/140
f 183/7/123 184/96/194 219/116/215 220/6/124
f 144/94/196 143/83/184 142/45/145 141/93/193
f 146/101/202 145/50/152 143/83/184 144/94/196
f 148/107/208 147/49/149 145/50/152 146/101/202
f 150/113/214 149/53/153 147/49/149 148/107/208
f 152/119/220 151/55/155 149/53/153 150/113/214
f 154/85/185 153/57/157 151/55/155 152/119/220
f 156/86/188 155/59/159 153/57/157 154/85/185
f 158/91/192 157/61/161 155/59/159 156/86/188
f 160/99/200 159/63/163 157/61/161 158/91/192
f 162/105/206 161/65/165 159/63/163 160/99/200
f 164/111/212 163/67/167 161/65/165 162/105/206
f 166/117/218 165/69/169 163/67/167 164/111/212
f 168/73/173 167/71/171 165/69/169 166/117/218
f 170/74/176 169/42/144 167/71/171 168/73/173
f 172/89/190 171/41/141 169/42/144 170/74/176
f 174/97/198 173/77/177 171/41/141 172/89/190
f 176/103/204 175/79/179 173/77/177 174/97/198
f 178/109/210 177/81/181 175/79/179 176/103/204
f 180/115/216 179/46/148 177/81/181 178/109/210
f 141/93/193 142/45/145 179/46/148 180/115/216
f 143/83/184 121/84/183 122/48/146 142/45/145
